<svg xmlns="http://www.w3.org/2000/svg" viewBox="0 0 300 40" width="300" height="40">
  <defs>
    <radialGradient id="czg" cx="35%" cy="30%" r="60%">
      <stop offset="0%" stop-color="#FFFFFF"/>
      <stop offset="60%" stop-color="#E8F4FF"/>
      <stop offset="100%" stop-color="#AACCEE"/>
    </radialGradient>
    <linearGradient id="settg" x1="0" y1="0" x2="0" y2="1">
      <stop offset="0%" stop-color="#E0E0E0"/>
      <stop offset="100%" stop-color="#A8A8A8"/>
    </linearGradient>
  </defs>
  <!-- Setting rail -->
  <rect x="8" y="14" width="284" height="12" rx="6" fill="url(#settg)" opacity="0.85"/>
  <!-- CZ stones - 14 across -->
  <g>
    <circle cx="20" cy="20" r="7" fill="url(#czg)" opacity="0.95"/>
<circle cx="18" cy="16" r="2" fill="white" opacity="0.6"/>
<circle cx="40" cy="20" r="7" fill="url(#czg)" opacity="0.95"/>
<circle cx="38" cy="16" r="2" fill="white" opacity="0.6"/>
<circle cx="60" cy="20" r="7" fill="url(#czg)" opacity="0.95"/>
<circle cx="58" cy="16" r="2" fill="white" opacity="0.6"/>
<circle cx="80" cy="20" r="7" fill="url(#czg)" opacity="0.95"/>
<circle cx="78" cy="16" r="2" fill="white" opacity="0.6"/>
<circle cx="100" cy="20" r="7" fill="url(#czg)" opacity="0.95"/>
<circle cx="98" cy="16" r="2" fill="white" opacity="0.6"/>
<circle cx="120" cy="20" r="7" fill="url(#czg)" opacity="0.95"/>
<circle cx="118" cy="16" r="2" fill="white" opacity="0.6"/>
<circle cx="140" cy="20" r="7" fill="url(#czg)" opacity="0.95"/>
<circle cx="138" cy="16" r="2" fill="white" opacity="0.6"/>
<circle cx="160" cy="20" r="7" fill="url(#czg)" opacity="0.95"/>
<circle cx="158" cy="16" r="2" fill="white" opacity="0.6"/>
<circle cx="180" cy="20" r="7" fill="url(#czg)" opacity="0.95"/>
<circle cx="178" cy="16" r="2" fill="white" opacity="0.6"/>
<circle cx="200" cy="20" r="7" fill="url(#czg)" opacity="0.95"/>
<circle cx="198" cy="16" r="2" fill="white" opacity="0.6"/>
<circle cx="220" cy="20" r="7" fill="url(#czg)" opacity="0.95"/>
<circle cx="218" cy="16" r="2" fill="white" opacity="0.6"/>
<circle cx="240" cy="20" r="7" fill="url(#czg)" opacity="0.95"/>
<circle cx="238" cy="16" r="2" fill="white" opacity="0.6"/>
<circle cx="260" cy="20" r="7" fill="url(#czg)" opacity="0.95"/>
<circle cx="258" cy="16" r="2" fill="white" opacity="0.6"/>
<circle cx="280" cy="20" r="7" fill="url(#czg)" opacity="0.95"/>
<circle cx="278" cy="16" r="2" fill="white" opacity="0.6"/>

  </g>
</svg>