<svg xmlns="http://www.w3.org/2000/svg" viewBox="0 0 110 110" width="110" height="110">
  <defs>
    <linearGradient id="yg" x1="0" y1="0" x2="1" y2="1">
      <stop offset="0%" stop-color="#E8C560"/>
      <stop offset="100%" stop-color="#B8932A"/>
    </linearGradient>
    <linearGradient id="eg" x1="0" y1="0" x2="0" y2="1">
      <stop offset="0%" stop-color="#4CAF50"/>
      <stop offset="50%" stop-color="#1B7A1B"/>
      <stop offset="100%" stop-color="#0D5C0D"/>
    </linearGradient>
  </defs>
  <!-- Band -->
  <path d="M18 82 Q18 97, 55 99 Q92 97, 92 82 L92 78 Q92 66, 76 64 L76 60 Q76 44, 55 42 Q34 44, 34 60 L34 64 Q18 66, 18 78Z" fill="url(#yg)" opacity="0.9"/>
  <!-- Halo setting -->
  <circle cx="55" cy="50" r="24" fill="url(#yg)" opacity="0.8"/>
  <!-- Halo diamonds -->
  <g fill="white" opacity="0.7">
    <circle cx="55" cy="26" r="2.5"/><circle cx="55" cy="74" r="2.5"/>
    <circle cx="31" cy="50" r="2.5"/><circle cx="79" cy="50" r="2.5"/>
    <circle cx="38" cy="33" r="2"/><circle cx="72" cy="33" r="2"/>
    <circle cx="38" cy="67" r="2"/><circle cx="72" cy="67" r="2"/>
  </g>
  <!-- Emerald center -->
  <rect x="38" y="34" width="34" height="32" rx="4" fill="url(#eg)" opacity="0.95"/>
  <!-- Emerald facets -->
  <rect x="41" y="37" width="28" height="26" rx="2" fill="none" stroke="#4CAF50" stroke-width="1" opacity="0.5"/>
  <line x1="38" y1="50" x2="72" y2="50" stroke="#2E8B2E" stroke-width="0.8" opacity="0.4"/>
  <line x1="55" y1="34" x2="55" y2="66" stroke="#2E8B2E" stroke-width="0.8" opacity="0.4"/>
  <!-- Highlight -->
  <ellipse cx="46" cy="40" rx="6" ry="3" fill="white" opacity="0.25"/>
</svg>