<svg xmlns="http://www.w3.org/2000/svg" viewBox="0 0 70 180" width="70" height="180">
  <defs>
    <linearGradient id="gc" x1="0" y1="0" x2="1" y2="1">
      <stop offset="0%" stop-color="#E8C560"/>
      <stop offset="100%" stop-color="#C9A84C"/>
    </linearGradient>
  </defs>
  <!-- Hook -->
  <path d="M35 2 C38 2, 42 6, 42 14 C42 20, 38 23, 35 23 C32 23, 28 20, 28 14 C28 6, 32 2, 35 2Z" fill="url(#gc)" opacity="0.9"/>
  <!-- Top bar -->
  <rect x="18" y="30" width="34" height="6" rx="3" fill="url(#gc)" opacity="0.85"/>
  <!-- Chain lattice -->
  <line x1="20" y1="36" x2="20" y2="80" stroke="#C9A84C" stroke-width="1.2" opacity="0.7"/>
  <line x1="35" y1="36" x2="35" y2="80" stroke="#C9A84C" stroke-width="1.2" opacity="0.7"/>
  <line x1="50" y1="36" x2="50" y2="80" stroke="#C9A84C" stroke-width="1.2" opacity="0.7"/>
  <line x1="20" y1="55" x2="50" y2="55" stroke="#C9A84C" stroke-width="0.8" opacity="0.5"/>
  <!-- Mid bar -->
  <rect x="14" y="80" width="42" height="5" rx="2.5" fill="url(#gc)" opacity="0.8"/>
  <!-- Pearl drops - 5 strands -->
  <line x1="16" y1="85" x2="16" y2="115" stroke="#C9A84C" stroke-width="0.8" opacity="0.5"/>
  <line x1="23" y1="85" x2="23" y2="125" stroke="#C9A84C" stroke-width="0.8" opacity="0.5"/>
  <line x1="35" y1="85" x2="35" y2="135" stroke="#C9A84C" stroke-width="0.8" opacity="0.5"/>
  <line x1="47" y1="85" x2="47" y2="125" stroke="#C9A84C" stroke-width="0.8" opacity="0.5"/>
  <line x1="54" y1="85" x2="54" y2="115" stroke="#C9A84C" stroke-width="0.8" opacity="0.5"/>
  <!-- Pearls -->
  <circle cx="16" cy="118" r="5" fill="#FAF7F0" opacity="0.95"/>
  <circle cx="23" cy="128" r="5.5" fill="#FAF7F0" opacity="0.95"/>
  <circle cx="35" cy="140" r="6" fill="#FAF7F0" opacity="0.95"/>
  <circle cx="47" cy="128" r="5.5" fill="#FAF7F0" opacity="0.95"/>
  <circle cx="54" cy="118" r="5" fill="#FAF7F0" opacity="0.95"/>
  <!-- Pearl shine -->
  <circle cx="13" cy="115" r="1.5" fill="white" opacity="0.6"/>
  <circle cx="32" cy="137" r="2" fill="white" opacity="0.6"/>
</svg>