<svg xmlns="http://www.w3.org/2000/svg" viewBox="0 0 300 40" width="300" height="40">
  <defs>
    <linearGradient id="bcg" x1="0" y1="0" x2="1" y2="0">
      <stop offset="0%" stop-color="#C9A84C"/>
      <stop offset="50%" stop-color="#E8C560"/>
      <stop offset="100%" stop-color="#C9A84C"/>
    </linearGradient>
  </defs>
  <!-- Box chain links -->
  <path d="M10 20 Q150 12, 290 20" fill="none" stroke="url(#bcg)" stroke-width="4" opacity="0.9"/>
  <!-- Individual box links for texture -->
  <g fill="none" stroke="#E8C560" stroke-width="0.8" opacity="0.5">
    <rect x="25" y="16" width="8" height="8" rx="1"/>
    <rect x="50" y="16" width="8" height="8" rx="1"/>
    <rect x="75" y="15" width="8" height="8" rx="1"/>
    <rect x="100" y="15" width="8" height="8" rx="1"/>
    <rect x="125" y="14" width="8" height="8" rx="1"/>
    <rect x="150" y="14" width="8" height="8" rx="1"/>
    <rect x="175" y="14" width="8" height="8" rx="1"/>
    <rect x="200" y="15" width="8" height="8" rx="1"/>
    <rect x="225" y="15" width="8" height="8" rx="1"/>
    <rect x="250" y="16" width="8" height="8" rx="1"/>
    <rect x="275" y="16" width="8" height="8" rx="1"/>
  </g>
</svg>